<svg xmlns="http://www.w3.org/2000/svg" width="16.544" height="16.544" viewBox="0 0 16.544 16.544">
  <g id="loupe" transform="translate(0.25 0.25)">
    <g id="Group_3467" data-name="Group 3467">
      <g id="Group_3466" data-name="Group 3466">
        <path id="Path_423" data-name="Path 423" d="M7.065,0a7.065,7.065,0,1,0,7.065,7.065A7.074,7.074,0,0,0,7.065,0Zm0,12.826a5.761,5.761,0,1,1,5.761-5.761A5.768,5.768,0,0,1,7.065,12.826Z" fill="#fff" stroke="#fff" stroke-width="0.5"/>
      </g>
    </g>
    <g id="Group_3469" data-name="Group 3469" transform="translate(11 11)">
      <g id="Group_3468" data-name="Group 3468">
        <path id="Path_424" data-name="Path 424" d="M355.9,354.976l-3.739-3.739a.652.652,0,0,0-.922.922l3.739,3.739a.652.652,0,0,0,.922-.922Z" transform="translate(-351.046 -351.046)" fill="#fff" stroke="#fff" stroke-width="0.5"/>
      </g>
    </g>
  </g>
</svg>
